<svg width="14" height="16" viewBox="0 0 14 16" fill="none" xmlns="http://www.w3.org/2000/svg">
<path d="M3.85721 1.71423H1.76197C1.48413 1.71423 1.21766 1.82461 1.0212 2.02107C0.824729 2.21754 0.714355 2.48401 0.714355 2.76185V14.2857C0.714355 14.5635 0.824729 14.83 1.0212 15.0264C1.21766 15.2229 1.48413 15.3333 1.76197 15.3333H12.2382C12.516 15.3333 12.7825 15.2229 12.9789 15.0264C13.1754 14.83 13.2858 14.5635 13.2858 14.2857V2.76185C13.2858 2.48401 13.1754 2.21754 12.9789 2.02107C12.7825 1.82461 12.516 1.71423 12.2382 1.71423H10.1429" stroke="#171C28" stroke-linecap="round" stroke-linejoin="round"/>
<path d="M3.85718 5.90472L10.1429 12.1904M10.1429 5.90472L3.85718 12.1904M4.9048 0.666626H9.09527C9.37312 0.666626 9.63958 0.777 9.83605 0.973466C10.0325 1.16993 10.1429 1.4364 10.1429 1.71425C10.1429 1.99209 10.0325 2.25856 9.83605 2.45502C9.63958 2.65149 9.37312 2.76186 9.09527 2.76186H4.9048C4.62695 2.76186 4.36049 2.65149 4.16402 2.45502C3.96755 2.25856 3.85718 1.99209 3.85718 1.71425C3.85718 1.4364 3.96755 1.16993 4.16402 0.973466C4.36049 0.777 4.62695 0.666626 4.9048 0.666626V0.666626Z" stroke="#171C28" stroke-linecap="round" stroke-linejoin="round"/>
</svg>
